<svg id="visual" viewBox="0 0 900 100" width="900" height="100" xmlns="http://www.w3.org/2000/svg" xmlns:xlink="http://www.w3.org/1999/xlink" version="1.1"><rect x="0" y="0" width="900" height="100" fill="#fff"></rect><path d="M0 55L12.5 57.3C25 59.7 50 64.3 75 68.5C100 72.7 125 76.3 150 76.7C175 77 200 74 225 62.2C250 50.3 275 29.7 300 22.7C325 15.7 350 22.3 375 33.7C400 45 425 61 450 57.3C475 53.7 500 30.3 525 21.7C550 13 575 19 600 25.2C625 31.3 650 37.7 675 48.3C700 59 725 74 750 68.8C775 63.7 800 38.3 825 37.2C850 36 875 59 887.5 70.5L900 82L900 101L887.5 101C875 101 850 101 825 101C800 101 775 101 750 101C725 101 700 101 675 101C650 101 625 101 600 101C575 101 550 101 525 101C500 101 475 101 450 101C425 101 400 101 375 101C350 101 325 101 300 101C275 101 250 101 225 101C200 101 175 101 150 101C125 101 100 101 75 101C50 101 25 101 12.5 101L0 101Z" fill="#666" stroke-linecap="round" stroke-linejoin="miter"></path></svg>